<svg xmlns="http://www.w3.org/2000/svg" viewBox="0 15.1899995803833 67.0199966430664 38.7400016784668" data-asc="1.06884765625"><g fill="#000000"><g fill="#000000" transform="translate(0, 0)"><path d="M12.48 53.93Q8.64 53.93 5.83 52.44Q3.03 50.95 1.51 47.88Q0 44.80 0 40.06Q0 35.13 1.66 32.01Q3.32 28.88 6.26 27.39Q9.20 25.90 13.01 25.90Q15.43 25.90 17.40 26.38Q19.36 26.86 20.73 27.54L19.02 32.13Q17.53 31.52 15.97 31.10Q14.40 30.69 12.96 30.69Q10.60 30.69 9.02 31.74Q7.45 32.79 6.68 34.86Q5.91 36.94 5.91 40.01Q5.91 42.99 6.69 45.03Q7.47 47.07 9.01 48.11Q10.55 49.15 12.79 49.15Q15.01 49.15 16.77 48.61Q18.53 48.07 20.09 47.22L20.09 52.20Q18.55 53.08 16.80 53.50Q15.04 53.93 12.48 53.93ZM44.58 45.73Q44.58 48.39 43.29 50.22Q41.99 52.05 39.51 52.99Q37.04 53.93 33.45 53.93Q30.62 53.93 28.58 53.53Q26.54 53.13 24.73 52.29L24.73 47.34Q26.66 48.24 29.06 48.90Q31.47 49.56 33.62 49.56Q36.45 49.56 37.70 48.67Q38.94 47.78 38.94 46.29Q38.94 45.41 38.44 44.71Q37.94 44.02 36.58 43.27Q35.23 42.53 32.62 41.48Q30.05 40.45 28.30 39.43Q26.54 38.40 25.63 36.95Q24.73 35.50 24.73 33.23Q24.73 29.64 27.58 27.77Q30.42 25.90 35.11 25.90Q37.60 25.90 39.81 26.40Q42.02 26.90 44.14 27.86L42.33 32.18Q40.50 31.37 38.66 30.85Q36.82 30.32 34.91 30.32Q32.69 30.32 31.53 31.01Q30.37 31.69 30.37 32.96Q30.37 33.91 30.93 34.57Q31.49 35.23 32.87 35.89Q34.25 36.55 36.72 37.52Q39.14 38.45 40.91 39.47Q42.68 40.48 43.63 41.94Q44.58 43.41 44.58 45.73ZM64.26 30.79L57.69 30.79L57.69 53.44L51.95 53.44L51.95 30.79L47.53 30.79L47.53 28.03L51.95 26.34L51.95 24.46Q51.95 21.02 53.04 18.99Q54.13 16.97 56.16 16.08Q58.20 15.19 61.04 15.19Q62.89 15.19 64.43 15.49Q65.97 15.80 67.02 16.19L65.53 20.53Q64.70 20.26 63.67 20.03Q62.65 19.80 61.47 19.80Q59.52 19.80 58.61 21.02Q57.69 22.24 57.69 24.58L57.69 26.42L64.26 26.42L64.26 30.79Z"/></g><g fill="#000000" transform="translate(0, 64.6484375)"><path d=""/></g></g></svg>