<svg xmlns="http://www.w3.org/2000/svg" viewBox="0 15.1899995803833 69.91999816894531 38.7400016784668" data-asc="1.06884765625"><g fill="#000000"><g fill="#000000" transform="translate(0, 0)"><path d="M12.74 53.93Q8.69 53.93 5.83 52.45Q2.98 50.98 1.49 47.88Q0 44.78 0 39.94Q0 34.94 1.70 31.77Q3.39 28.61 6.41 27.12Q9.42 25.63 13.40 25.63Q16.24 25.63 18.30 26.18Q20.36 26.73 21.90 27.49L19.70 33.25Q17.94 32.54 16.43 32.09Q14.92 31.64 13.40 31.64Q11.45 31.64 10.16 32.56Q8.86 33.47 8.23 35.30Q7.59 37.13 7.59 39.89Q7.59 42.60 8.28 44.38Q8.96 46.17 10.25 47.03Q11.55 47.90 13.40 47.90Q15.72 47.90 17.53 47.28Q19.34 46.66 21.04 45.53L21.04 51.90Q19.34 52.98 17.47 53.45Q15.60 53.93 12.74 53.93ZM46.41 45.34Q46.41 48.12 45.10 50.04Q43.80 51.95 41.21 52.94Q38.62 53.93 34.77 53.93Q31.91 53.93 29.87 53.56Q27.83 53.20 25.76 52.34L25.76 46.19Q27.98 47.19 30.53 47.84Q33.08 48.49 35.01 48.49Q37.18 48.49 38.12 47.84Q39.06 47.19 39.06 46.14Q39.06 45.46 38.68 44.91Q38.31 44.36 37.06 43.66Q35.82 42.97 33.15 41.85Q30.59 40.77 28.94 39.67Q27.29 38.57 26.50 37.07Q25.71 35.57 25.71 33.25Q25.71 29.47 28.65 27.55Q31.59 25.63 36.52 25.63Q39.06 25.63 41.37 26.15Q43.68 26.66 46.12 27.78L43.87 33.15Q41.85 32.28 40.05 31.71Q38.26 31.15 36.40 31.15Q34.77 31.15 33.94 31.59Q33.11 32.03 33.11 32.93Q33.11 33.59 33.53 34.11Q33.96 34.62 35.19 35.24Q36.43 35.86 38.82 36.84Q41.14 37.79 42.85 38.83Q44.56 39.87 45.48 41.39Q46.41 42.92 46.41 45.34ZM67.31 31.74L60.86 31.74L60.86 53.44L53.42 53.44L53.42 31.74L49.32 31.74L49.32 28.15L53.42 26.15L53.42 24.15Q53.42 20.65 54.60 18.71Q55.79 16.77 57.95 15.98Q60.11 15.19 63.06 15.19Q65.23 15.19 67.02 15.54Q68.80 15.89 69.92 16.33L68.02 21.80Q67.16 21.53 66.16 21.31Q65.16 21.09 63.87 21.09Q62.30 21.09 61.58 22.03Q60.86 22.97 60.86 24.44L60.86 26.15L67.31 26.15L67.31 31.74Z"/></g><g fill="#000000" transform="translate(0, 64.6484375)"><path d=""/></g></g></svg>