<?xml version="1.0" encoding="utf-8"?>
<svg xmlns="http://www.w3.org/2000/svg" width="160.815" height="165.121" viewBox="0 10.84000015258789 22.510000228881836 21.849998474121094" data-asc="0.927734375">
  <g fill="#ffffff" style="" transform="matrix(0.529289, 0, 0, 0.529289, 0.767174, 6.199637)">
    <g fill="#ffffff" transform="translate(0, 0)">
      <path d="M7.96 23.05L0 20.85L1.59 16.24L9.38 19.43L8.76 10.84L13.99 10.84L13.35 19.60L20.92 16.48L22.51 21.14L14.45 23.34L19.80 29.81L15.58 32.69L11.11 25.51L6.62 32.45L2.39 29.69L7.96 23.05Z"/>
    </g>
  </g>
  <g fill="#ffffff" style="transform-origin: 11.255px 21.765px 0px;" transform="matrix(0.389105, 0, 0, 0.399966, 5.659026, 1.357344)">
    <g fill="#ffffff" transform="translate(0, 0)">
      <path d="M7.96 23.05L0 20.85L1.59 16.24L9.38 19.43L8.76 10.84L13.99 10.84L13.35 19.60L20.92 16.48L22.51 21.14L14.45 23.34L19.80 29.81L15.58 32.69L11.11 25.51L6.62 32.45L2.39 29.69L7.96 23.05Z" style="fill: rgb(197, 194, 170);"/>
    </g>
    <animateTransform type="rotate" additive="sum" attributeName="transform" values="0;0;-14;0;0" begin="0s" dur="5s" fill="freeze" keyTimes="0; 0.34483; 0.42461; 0.52873; 1" calcMode="spline" keySplines="0.42 0 1 1; 0.42 0 0.58 1; 0.42 0 0.58 1; 0 0 1 1" repeatCount="indefinite"/>
  </g>
  <g fill="#ffffff" style="transform-origin: 11.255px 21.765px 0px;" transform="matrix(0.276781, 0, 0, 0.276781, -2.832918, 6.234391)">
    <g fill="#ffffff" transform="translate(0, 0)">
      <path d="M7.96 23.05L0 20.85L1.59 16.24L9.38 19.43L8.76 10.84L13.99 10.84L13.35 19.60L20.92 16.48L22.51 21.14L14.45 23.34L19.80 29.81L15.58 32.69L11.11 25.51L6.62 32.45L2.39 29.69L7.96 23.05Z"/>
    </g>
    <animateTransform type="rotate" additive="sum" attributeName="transform" values="0;0;-20;0;0" dur="5s" fill="freeze" begin="-0.06s" keyTimes="0; 0.757936; 0.84127; 0.92328; 1" calcMode="spline" keySplines="0 0 1 1; 0.42 0 0.58 1; 0.42 0 0.58 1; 0 0 1 1" repeatCount="indefinite"/>
  </g>
</svg>
