<svg xmlns="http://www.w3.org/2000/svg" viewBox="0 15.1899995803833 72.61000061035156 38.7400016784668" data-asc="1.06884765625"><g fill="#ffffff"><g fill="#ffffff" transform="translate(0, 0)"><path d="M13.79 53.93Q9.59 53.93 6.49 52.43Q3.39 50.93 1.70 47.79Q0 44.65 0 39.75Q0 34.72 1.89 31.52Q3.78 28.32 7.08 26.81Q10.38 25.29 14.55 25.29Q17.09 25.29 19.37 25.85Q21.66 26.42 23.61 27.39L20.80 34.45Q19.09 33.69 17.61 33.24Q16.14 32.79 14.55 32.79Q13.11 32.79 12.01 33.54Q10.91 34.30 10.30 35.83Q9.69 37.35 9.69 39.70Q9.69 42.09 10.31 43.55Q10.94 45.02 12.05 45.68Q13.16 46.34 14.60 46.34Q16.67 46.34 18.74 45.69Q20.80 45.04 22.66 43.90L22.66 51.49Q20.95 52.61 18.80 53.27Q16.65 53.93 13.79 53.93ZM48.71 44.95Q48.71 47.58 47.53 49.61Q46.36 51.64 43.79 52.78Q41.21 53.93 37.01 53.93Q34.06 53.93 31.73 53.61Q29.39 53.30 27.00 52.39L27.00 44.75Q29.61 45.95 32.32 46.47Q35.03 47.00 36.60 47.00Q38.21 47.00 38.95 46.64Q39.70 46.29 39.70 45.58Q39.70 44.97 39.20 44.54Q38.70 44.12 37.41 43.55Q36.13 42.99 33.81 42.04Q31.52 41.09 29.99 39.97Q28.47 38.84 27.71 37.28Q26.95 35.72 26.95 33.45Q26.95 29.39 30.08 27.34Q33.20 25.29 38.35 25.29Q41.09 25.29 43.51 25.89Q45.92 26.49 48.51 27.64L45.90 33.79Q43.85 32.86 41.75 32.30Q39.65 31.74 38.40 31.74Q37.28 31.74 36.67 32.03Q36.06 32.32 36.06 32.89Q36.06 33.40 36.49 33.79Q36.91 34.18 38.11 34.69Q39.31 35.21 41.60 36.13Q44.02 37.11 45.59 38.22Q47.17 39.33 47.94 40.92Q48.71 42.50 48.71 44.95ZM70.90 32.93L65.01 32.93L65.01 53.44L55.47 53.44L55.47 32.93L51.81 32.93L51.81 28.25L55.66 25.90L55.66 25.44Q55.66 21.85 56.62 19.59Q57.57 17.33 59.64 16.26Q61.72 15.19 65.06 15.19Q67.21 15.19 68.96 15.53Q70.70 15.87 72.61 16.50L70.56 22.68Q69.85 22.49 68.98 22.34Q68.12 22.19 67.11 22.19Q66.02 22.19 65.52 22.86Q65.01 23.54 65.01 25.05L65.01 25.78L70.90 25.78L70.90 32.93Z"/></g><g fill="#ffffff" transform="translate(0, 67.234375)"><path d=""/></g></g></svg>